<mxfile host="Electron" agent="Mozilla/5.0 (Windows NT 10.0; Win64; x64) AppleWebKit/537.36 (KHTML, like Gecko) draw.io/26.0.9 Chrome/128.0.6613.186 Electron/32.2.5 Safari/537.36" version="26.0.9">
  <diagram name="Strona-1" id="Rj_gp0cU6B79DLyrfHZn">
    <mxGraphModel dx="1032" dy="1180" grid="0" gridSize="10" guides="1" tooltips="1" connect="1" arrows="1" fold="1" page="1" pageScale="1" pageWidth="827" pageHeight="1169" math="0" shadow="0">
      <root>
        <mxCell id="0" />
        <mxCell id="1" parent="0" />
        <mxCell id="PVoK8snMaleLZtDEf4hd-32" value="Podsystem delegacji" style="swimlane;whiteSpace=wrap;startSize=23;" parent="1" vertex="1">
          <mxGeometry x="450" y="40" width="280" height="730" as="geometry" />
        </mxCell>
        <mxCell id="PVoK8snMaleLZtDEf4hd-34" value="Dodaj delegacje do bazy danych" style="rounded=1;whiteSpace=wrap;html=1;fillColor=light-dark(#7ACFF5,var(--ge-dark-color, #121212));" parent="PVoK8snMaleLZtDEf4hd-32" vertex="1">
          <mxGeometry x="150" y="378" width="120" height="58" as="geometry" />
        </mxCell>
        <mxCell id="PVoK8snMaleLZtDEf4hd-35" value="Zmień status wniosku delegacji" style="rounded=1;whiteSpace=wrap;html=1;fillColor=light-dark(#7ACFF5,var(--ge-dark-color, #121212));" parent="PVoK8snMaleLZtDEf4hd-32" vertex="1">
          <mxGeometry x="10" y="510" width="120" height="58" as="geometry" />
        </mxCell>
        <mxCell id="PVoK8snMaleLZtDEf4hd-37" value="" style="html=1;points=[];perimeter=orthogonalPerimeter;fillColor=strokeColor;rotation=90;" parent="PVoK8snMaleLZtDEf4hd-32" vertex="1">
          <mxGeometry x="135" y="568" width="5" height="80" as="geometry" />
        </mxCell>
        <mxCell id="PVoK8snMaleLZtDEf4hd-41" value="" style="html=1;points=[];perimeter=orthogonalPerimeter;fillColor=strokeColor;" parent="PVoK8snMaleLZtDEf4hd-32" vertex="1">
          <mxGeometry x="80" y="356" width="15" height="80" as="geometry" />
        </mxCell>
        <mxCell id="PVoK8snMaleLZtDEf4hd-43" value="" style="html=1;points=[];perimeter=orthogonalPerimeter;fillColor=strokeColor;rotation=90;" parent="PVoK8snMaleLZtDEf4hd-32" vertex="1">
          <mxGeometry x="67.5" y="435" width="5" height="80" as="geometry" />
        </mxCell>
        <mxCell id="zNYqvh69X_pTzsY91637-7" value="" style="endArrow=open;endFill=1;endSize=12;html=1;rounded=0;exitX=0.99;exitY=0.288;exitDx=0;exitDy=0;entryX=0;entryY=0.5;entryDx=0;entryDy=0;exitPerimeter=0;" parent="PVoK8snMaleLZtDEf4hd-32" source="PVoK8snMaleLZtDEf4hd-41" target="PVoK8snMaleLZtDEf4hd-34" edge="1">
          <mxGeometry width="160" relative="1" as="geometry">
            <mxPoint x="134.43000000000006" y="300" as="sourcePoint" />
            <mxPoint x="134.43000000000006" y="342" as="targetPoint" />
            <Array as="points">
              <mxPoint x="120" y="379" />
              <mxPoint x="120" y="407" />
            </Array>
          </mxGeometry>
        </mxCell>
        <mxCell id="zNYqvh69X_pTzsY91637-8" value="" style="endArrow=open;endFill=1;endSize=12;html=1;rounded=0;exitX=0.978;exitY=0.838;exitDx=0;exitDy=0;entryX=0.123;entryY=0.244;entryDx=0;entryDy=0;exitPerimeter=0;entryPerimeter=0;" parent="PVoK8snMaleLZtDEf4hd-32" source="PVoK8snMaleLZtDEf4hd-41" target="PVoK8snMaleLZtDEf4hd-43" edge="1">
          <mxGeometry width="160" relative="1" as="geometry">
            <mxPoint x="140" y="447" as="sourcePoint" />
            <mxPoint x="140" y="489" as="targetPoint" />
            <Array as="points">
              <mxPoint x="120" y="423" />
              <mxPoint x="120" y="450" />
              <mxPoint x="110" y="450" />
              <mxPoint x="90" y="450" />
              <mxPoint x="90" y="460" />
            </Array>
          </mxGeometry>
        </mxCell>
        <mxCell id="zNYqvh69X_pTzsY91637-9" value="" style="endArrow=open;endFill=1;endSize=12;html=1;rounded=0;exitX=0.96;exitY=0.506;exitDx=0;exitDy=0;entryX=0.5;entryY=0;entryDx=0;entryDy=0;exitPerimeter=0;" parent="PVoK8snMaleLZtDEf4hd-32" source="PVoK8snMaleLZtDEf4hd-43" target="PVoK8snMaleLZtDEf4hd-35" edge="1">
          <mxGeometry width="160" relative="1" as="geometry">
            <mxPoint x="10" y="460" as="sourcePoint" />
            <mxPoint x="10" y="502" as="targetPoint" />
          </mxGeometry>
        </mxCell>
        <mxCell id="zNYqvh69X_pTzsY91637-10" value="" style="endArrow=open;endFill=1;endSize=12;html=1;rounded=0;exitX=0.5;exitY=1;exitDx=0;exitDy=0;entryX=-0.151;entryY=0.251;entryDx=0;entryDy=0;entryPerimeter=0;" parent="PVoK8snMaleLZtDEf4hd-32" source="PVoK8snMaleLZtDEf4hd-34" target="PVoK8snMaleLZtDEf4hd-37" edge="1">
          <mxGeometry width="160" relative="1" as="geometry">
            <mxPoint x="240" y="477" as="sourcePoint" />
            <mxPoint x="240" y="510" as="targetPoint" />
            <Array as="points">
              <mxPoint x="210" y="520" />
              <mxPoint x="157" y="520" />
              <mxPoint x="157" y="560" />
            </Array>
          </mxGeometry>
        </mxCell>
        <mxCell id="zNYqvh69X_pTzsY91637-11" value="" style="endArrow=open;endFill=1;endSize=12;html=1;rounded=0;exitX=0.5;exitY=1;exitDx=0;exitDy=0;entryX=-0.244;entryY=0.681;entryDx=0;entryDy=0;entryPerimeter=0;" parent="PVoK8snMaleLZtDEf4hd-32" source="PVoK8snMaleLZtDEf4hd-35" target="PVoK8snMaleLZtDEf4hd-37" edge="1">
          <mxGeometry width="160" relative="1" as="geometry">
            <mxPoint x="40" y="591.5" as="sourcePoint" />
            <mxPoint x="40" y="624.5" as="targetPoint" />
            <Array as="points">
              <mxPoint x="70" y="580" />
              <mxPoint x="100" y="580" />
              <mxPoint x="123" y="580" />
            </Array>
          </mxGeometry>
        </mxCell>
        <mxCell id="zNYqvh69X_pTzsY91637-12" value="" style="endArrow=open;endFill=1;endSize=12;html=1;rounded=0;exitX=0.5;exitY=1;exitDx=0;exitDy=0;entryX=1;entryY=0.5;entryDx=0;entryDy=0;" parent="PVoK8snMaleLZtDEf4hd-32" target="PVoK8snMaleLZtDEf4hd-51" edge="1">
          <mxGeometry width="160" relative="1" as="geometry">
            <mxPoint x="140" y="606" as="sourcePoint" />
            <mxPoint x="140" y="648" as="targetPoint" />
            <Array as="points">
              <mxPoint x="140" y="640" />
              <mxPoint x="-20" y="640" />
              <mxPoint x="-20" y="619" />
            </Array>
          </mxGeometry>
        </mxCell>
        <mxCell id="PVoK8snMaleLZtDEf4hd-45" value="HR" style="swimlane;whiteSpace=wrap;startSize=23;" parent="1" vertex="1">
          <mxGeometry x="50" y="40" width="400" height="730" as="geometry" />
        </mxCell>
        <mxCell id="PVoK8snMaleLZtDEf4hd-47" value="Przeglądaj formularze delegacji" style="rounded=1;whiteSpace=wrap;html=1;fillColor=light-dark(#7ACFF5,var(--ge-dark-color, #121212));" parent="PVoK8snMaleLZtDEf4hd-45" vertex="1">
          <mxGeometry x="100" y="120" width="120" height="58" as="geometry" />
        </mxCell>
        <mxCell id="PVoK8snMaleLZtDEf4hd-49" value="" style="ellipse;fillColor=strokeColor;html=1;" parent="PVoK8snMaleLZtDEf4hd-45" vertex="1">
          <mxGeometry x="150" y="50" width="20" height="20" as="geometry" />
        </mxCell>
        <mxCell id="PVoK8snMaleLZtDEf4hd-51" value="Wyświetl zmieniony status delegacji" style="rounded=1;whiteSpace=wrap;html=1;fillColor=light-dark(#7ACFF5,var(--ge-dark-color, #121212));" parent="PVoK8snMaleLZtDEf4hd-45" vertex="1">
          <mxGeometry x="100" y="590" width="120" height="58" as="geometry" />
        </mxCell>
        <mxCell id="PVoK8snMaleLZtDEf4hd-52" value="" style="ellipse;html=1;shape=endState;fillColor=strokeColor;" parent="PVoK8snMaleLZtDEf4hd-45" vertex="1">
          <mxGeometry x="150" y="700" width="20" height="20" as="geometry" />
        </mxCell>
        <mxCell id="PVoK8snMaleLZtDEf4hd-53" value="Wyświetl wybrany formularz delegacji" style="rounded=1;whiteSpace=wrap;html=1;fillColor=light-dark(#7ACFF5,var(--ge-dark-color, #121212));" parent="PVoK8snMaleLZtDEf4hd-45" vertex="1">
          <mxGeometry x="100" y="230" width="120" height="58" as="geometry" />
        </mxCell>
        <mxCell id="A4R0edaIbqLnrqVTELR6-2" value="Zadecyduj o wniosku" style="rounded=1;whiteSpace=wrap;html=1;fillColor=light-dark(#7ACFF5,var(--ge-dark-color, #121212));" parent="PVoK8snMaleLZtDEf4hd-45" vertex="1">
          <mxGeometry x="100" y="335" width="120" height="58" as="geometry" />
        </mxCell>
        <mxCell id="A4R0edaIbqLnrqVTELR6-3" value="" style="rhombus;whiteSpace=wrap;html=1;fillColor=light-dark(#7ACFF5,var(--ge-dark-color, #121212));" parent="PVoK8snMaleLZtDEf4hd-45" vertex="1">
          <mxGeometry x="135" y="435" width="50" height="50" as="geometry" />
        </mxCell>
        <mxCell id="A4R0edaIbqLnrqVTELR6-4" value="[Wniosek odrzucony]" style="text;html=1;align=center;verticalAlign=middle;whiteSpace=wrap;rounded=0;" parent="PVoK8snMaleLZtDEf4hd-45" vertex="1">
          <mxGeometry x="160" y="507" width="60" height="30" as="geometry" />
        </mxCell>
        <mxCell id="A4R0edaIbqLnrqVTELR6-5" value="[Wniosek zatwierdzony]" style="text;html=1;align=center;verticalAlign=middle;whiteSpace=wrap;rounded=0;" parent="PVoK8snMaleLZtDEf4hd-45" vertex="1">
          <mxGeometry x="200" y="425" width="60" height="30" as="geometry" />
        </mxCell>
        <mxCell id="zNYqvh69X_pTzsY91637-1" value="" style="endArrow=open;endFill=1;endSize=12;html=1;rounded=0;exitX=0.5;exitY=1;exitDx=0;exitDy=0;entryX=0.5;entryY=0;entryDx=0;entryDy=0;" parent="PVoK8snMaleLZtDEf4hd-45" source="PVoK8snMaleLZtDEf4hd-49" target="PVoK8snMaleLZtDEf4hd-47" edge="1">
          <mxGeometry width="160" relative="1" as="geometry">
            <mxPoint x="230" y="390" as="sourcePoint" />
            <mxPoint x="390" y="390" as="targetPoint" />
          </mxGeometry>
        </mxCell>
        <mxCell id="zNYqvh69X_pTzsY91637-2" value="" style="endArrow=open;endFill=1;endSize=12;html=1;rounded=0;exitX=0.5;exitY=1;exitDx=0;exitDy=0;entryX=0.5;entryY=0;entryDx=0;entryDy=0;" parent="PVoK8snMaleLZtDEf4hd-45" source="PVoK8snMaleLZtDEf4hd-47" target="PVoK8snMaleLZtDEf4hd-53" edge="1">
          <mxGeometry width="160" relative="1" as="geometry">
            <mxPoint x="259.52" y="160" as="sourcePoint" />
            <mxPoint x="259.52" y="210" as="targetPoint" />
          </mxGeometry>
        </mxCell>
        <mxCell id="zNYqvh69X_pTzsY91637-3" value="" style="endArrow=open;endFill=1;endSize=12;html=1;rounded=0;exitX=0.5;exitY=1;exitDx=0;exitDy=0;entryX=0.5;entryY=0;entryDx=0;entryDy=0;" parent="PVoK8snMaleLZtDEf4hd-45" source="PVoK8snMaleLZtDEf4hd-53" target="A4R0edaIbqLnrqVTELR6-2" edge="1">
          <mxGeometry width="160" relative="1" as="geometry">
            <mxPoint x="185" y="283" as="sourcePoint" />
            <mxPoint x="185" y="335" as="targetPoint" />
          </mxGeometry>
        </mxCell>
        <mxCell id="zNYqvh69X_pTzsY91637-4" value="" style="endArrow=open;endFill=1;endSize=12;html=1;rounded=0;exitX=0.5;exitY=1;exitDx=0;exitDy=0;entryX=0.5;entryY=0;entryDx=0;entryDy=0;" parent="PVoK8snMaleLZtDEf4hd-45" source="A4R0edaIbqLnrqVTELR6-2" target="A4R0edaIbqLnrqVTELR6-3" edge="1">
          <mxGeometry width="160" relative="1" as="geometry">
            <mxPoint x="190" y="393" as="sourcePoint" />
            <mxPoint x="190" y="440" as="targetPoint" />
          </mxGeometry>
        </mxCell>
        <mxCell id="iYIvkjZbpAasQS0j3pIv-1" value="" style="endArrow=open;endFill=1;endSize=12;html=1;rounded=0;exitX=0.5;exitY=1;exitDx=0;exitDy=0;entryX=0.5;entryY=0;entryDx=0;entryDy=0;" edge="1" parent="PVoK8snMaleLZtDEf4hd-45" source="PVoK8snMaleLZtDEf4hd-51" target="PVoK8snMaleLZtDEf4hd-52">
          <mxGeometry width="160" relative="1" as="geometry">
            <mxPoint x="257" y="664" as="sourcePoint" />
            <mxPoint x="257" y="711" as="targetPoint" />
          </mxGeometry>
        </mxCell>
        <mxCell id="zNYqvh69X_pTzsY91637-5" value="" style="endArrow=open;endFill=1;endSize=12;html=1;rounded=0;exitX=1;exitY=0.5;exitDx=0;exitDy=0;entryX=-0.045;entryY=0.55;entryDx=0;entryDy=0;entryPerimeter=0;" parent="1" source="A4R0edaIbqLnrqVTELR6-3" target="PVoK8snMaleLZtDEf4hd-41" edge="1">
          <mxGeometry width="160" relative="1" as="geometry">
            <mxPoint x="270" y="500" as="sourcePoint" />
            <mxPoint x="350" y="500" as="targetPoint" />
            <Array as="points">
              <mxPoint x="340" y="500" />
              <mxPoint x="340" y="440" />
            </Array>
          </mxGeometry>
        </mxCell>
        <mxCell id="zNYqvh69X_pTzsY91637-6" value="" style="endArrow=open;endFill=1;endSize=12;html=1;rounded=0;exitX=0.5;exitY=1;exitDx=0;exitDy=0;entryX=-0.156;entryY=0.802;entryDx=0;entryDy=0;entryPerimeter=0;" parent="1" source="A4R0edaIbqLnrqVTELR6-3" target="PVoK8snMaleLZtDEf4hd-43" edge="1">
          <mxGeometry width="160" relative="1" as="geometry">
            <mxPoint x="170" y="525" as="sourcePoint" />
            <mxPoint x="496" y="511" as="targetPoint" />
            <Array as="points">
              <mxPoint x="210" y="540" />
              <mxPoint x="360" y="540" />
              <mxPoint x="360" y="480" />
              <mxPoint x="496" y="480" />
            </Array>
          </mxGeometry>
        </mxCell>
      </root>
    </mxGraphModel>
  </diagram>
</mxfile>
